<svg xmlns="http://www.w3.org/2000/svg" version="1" viewBox="0 0 300 300">
  <path d="M177.8 39c-1.4.4-3.2 1.2-4 1.6-.7.5-6.9.7-13.8.6-9.8-.1-14.3.2-20.8 1.9-4.5 1.1-9.4 1.9-10.9 1.7-2.2-.2-2.8.2-3.3 2.2s-1.1 2.5-3.6 2.2c-9.2-.8-11.5-.5-14 1.9-3.7 3.4-5.2 6.9-4.8 10.7.4 3.5 3.2 8.1 5 8.2 2.2 0 3.2 2.2 2.4 5.1-1.1 3.7-2.2 11.9-2.5 18.8-.2 5.5-2 8.1-5.3 8.1-1.4 0-7 3.7-10 6.7-.8.7-1.8 1.1-2.3.8-1.7-1.1-10.5-2-18.6-1.9-12.3.2-17.3 2.9-24 13.2-2.9 4.3-5.7 9.1-6.4 10.8l-1.2 2.9-.7-3c-.8-3.5-2.8-7.5-3.8-7.6-.4 0-2.8-.2-5.3-.4-9.2-.9-18.4-7-17.2-11.5.4-1.5.2-2.1-.5-1.6-.9.5-2.3 7.7-2.7 13.6-.1 2.6 2.5 8.4 5.1 11.1l2.5 2.6h-2.4c-4.2 0-8.1 2.7-11.5 7.7-2.5 3.8-3.2 5.9-3.2 9.7 0 2.7.5 4.9 1 4.9 2 0 7.5-2.8 9.6-4.7 5.3-5.2 9.8-5.3 8.3-.1-.4 1.7-.8 3.3-.7 3.7.4 3.6-.5 5.3-3.6 6.6-4.2 1.8-6.4 4.7-6 8.1.1 1.4-.9 4.9-2.4 7.7-1.7 3.5-2.6 6.9-2.6 10.3-.1 5.4-.1 5.4 12.6 21.3 4.5 5.7 5.1 8.7 3.4 17.1-.4 1.9-1 6-1.3 9.2-.5 5.5-.5 5.7 2.7 7.3 1.7.9 4.4 1.5 5.8 1.4 1.5-.1 4.3.1 6.2.5 7 1.3 10.9 1.3 13.9 0 1.7-.7 3.1-1.8 3.1-2.3 0-.6 1.4-2.6 3.1-4.5 1.6-1.9 3.2-5 3.5-6.8.5-2.9.1-3.8-3.5-7.4-2.9-2.8-4.4-5.3-4.8-7.8-.6-3.6-.3-4 5.4-9.5 3.3-3.1 6.8-6.9 7.7-8.3 2.5-3.8 2.8-11.7.6-16.5l-1.8-4 3.9-1.7c2.2-1 4.7-2.9 5.6-4.2l1.6-2.5 6.9 7.5c9 9.8 15.3 13.4 26.3 15.1 1.7.2 4.4.7 6.1 1 1.7.3 5.3.7 8 .9 6.6.5 6.4.4 6.4 2 0 .7 1.1 3 2.5 5 1.8 2.7 2.3 4.4 1.9 6.4-1 3.7-7.9 18.3-12.6 26.5-4.1 7.1-5.9 8.4-12.6 9.1-6.8.6-8 1.8-8.9 8.7-.4 3.5-.2 3.7 3.9 5.7 7.3 3.5 10.9 3.4 18.5-.4 3.9-2 8.2-3.4 10.3-3.4 4.2 0 7.5-2.1 8.4-5.2.3-1.3 3.8-4.7 7.6-7.6l7-5.4 2 2.4c1.1 1.3 1.9 2.9 2 3.5 0 .7.5 1.3 1 1.3.6 0 1 1.7 1 3.7 0 5.2 1.3 6.7 5.4 6.8 2.6.1 5.4 1.5 10.3 5.1 3.8 2.7 8.2 5.5 9.8 6.2 3.4 1.5 15.2 1.9 16.5.6 3.1-3.3.3-10.3-5.3-13.5-2.3-1.2-4.3-2.2-4.4-2.1-1.1.9-4.6-.2-6.8-2.1-2.3-1.9-2.5-2.6-1.6-5 .6-1.5 1.7-2.7 2.6-2.7.8 0 2.7-1.9 4.2-4.3 3.6-5.7 11.3-20.9 11.3-22.5 0-2 4.1-10.2 5.2-10.2 2.1 0 9.7-6.2 11.7-9.5 1.1-2 2.5-3.4 2.9-3.1.5.3 3.6-.8 7-2.4 5.1-2.4 7-4.1 11.3-9.9 2.8-3.9 5.4-7.1 5.6-7.1.4 0 2 1.2 7.9 5.9.7.6 1 3.4.7 7.5-.3 6.1-.1 6.7 2.8 10 1.6 1.9 3.8 3.8 4.7 4.1 2.7.8 4.9 5.6 4.7 9.7-.4 6.4-2.2 9.4-6.9 11.2-6.2 2.4-8.8 8-5 11.1.6.5 1.5 2.7 1.8 4.8.8 4.4 2.9 5.6 9 5 2.2-.3 4.2-.6 4.4-.8.2-.2 1.6 0 3.2.5 2.2.6 4.1.2 8.7-2.1 3.2-1.6 6.5-2.9 7.3-2.9 2.6 0 5-5.3 4.5-9.9-.2-2.2-.6-4.4-.8-4.8-.3-.5-.8-3.3-1.1-6.4-.6-4.8-.3-6 1.6-9 9.3-13.8 10.9-22.9 5.9-33-2.5-5.1-7.5-10.9-11.2-13.3-2.2-1.4-2.7-2.6-3.2-7.9-.7-7.1-3.4-13.9-7.3-18.1-2.9-3.1-9.7-6.5-12.9-6.6-1.6 0-2.4-1.3-3.9-6.5-1.8-6.5-5.9-13.3-10-16.7-4.9-4.1-21.4-6.8-28.8-4.7-4.8 1.3-6-.7-6-9.8 0-4.4-.5-10.2-1-12.9-.8-3.9-.8-4.9.3-5.3 3.4-1.1 6.9-6 6.9-9.6 0-9.1-8.5-15-17.1-12.1l-3.9 1.4V46c0-5.9-.3-6.8-2-7.3-2.9-.7-15.1-.5-18.2.3z"/>
</svg>
